<svg width="53" height="53" viewBox="0 0 53 53" fill="none" xmlns="http://www.w3.org/2000/svg">
<path d="M19.875 46.375H11.0417C9.82708 46.375 8.78769 45.9429 7.9235 45.0787C7.05931 44.2145 6.62647 43.1744 6.625 41.9583V26.5C6.625 23.7396 7.14985 21.1544 8.19954 18.7443C9.24924 16.3343 10.6655 14.2364 12.4484 12.4506C14.2312 10.6648 16.3292 9.24777 18.7421 8.19954C21.1551 7.15132 23.7411 6.62648 26.5 6.625C29.2589 6.62353 31.8449 7.14838 34.2579 8.19954C36.6708 9.25071 38.7688 10.667 40.5516 12.4484C42.3345 14.2298 43.7515 16.3277 44.8027 18.7421C45.8538 21.1566 46.3779 23.7425 46.375 26.5V41.9583C46.375 43.1729 45.9429 44.213 45.0787 45.0787C44.2145 45.9444 43.1744 46.3765 41.9583 46.375H33.125V28.7083H41.9583V26.5C41.9583 22.1938 40.4589 18.5412 37.46 15.5423C34.461 12.5433 30.8077 11.0431 26.5 11.0417C22.1923 11.0402 18.5397 12.5404 15.5423 15.5423C12.5448 18.5441 11.0446 22.1967 11.0417 26.5V28.7083H19.875V46.375Z" fill="black"/>
</svg>
