<svg width="53" height="53" viewBox="0 0 53 53" fill="none" xmlns="http://www.w3.org/2000/svg">
<path d="M23.1875 27.4772L18.8978 23.1875L16.5625 25.5228L23.1875 32.1478L36.4375 18.8978L34.1022 16.5625L23.1875 27.4772Z" fill="black"/>
<path d="M26.5 49.6875L16.271 44.2335C13.3547 42.6824 10.9159 40.3662 9.21644 37.5338C7.51701 34.7013 6.62114 31.4594 6.62501 28.1562V6.625C6.62501 5.74647 6.97401 4.90392 7.59522 4.28271C8.21644 3.66149 9.05898 3.3125 9.93751 3.3125H43.0625C43.941 3.3125 44.7836 3.66149 45.4048 4.28271C46.026 4.90392 46.375 5.74647 46.375 6.625V28.1562C46.3789 31.4594 45.483 34.7013 43.7836 37.5338C42.0842 40.3662 39.6454 42.6824 36.729 44.2335L26.5 49.6875ZM9.93751 6.625V28.1562C9.93567 30.8587 10.6694 33.5108 12.06 35.828C13.4506 38.1453 15.4456 40.0404 17.8312 41.3102L26.5 45.9328L35.1688 41.3118C37.5547 40.0419 39.5499 38.1466 40.9405 35.829C42.3311 33.5114 43.0647 30.859 43.0625 28.1562V6.625H9.93751Z" fill="black"/>
</svg>
