<svg width="55" height="55" viewBox="0 0 55 55" fill="none" xmlns="http://www.w3.org/2000/svg">
<path d="M38.6814 15.6796C37.8213 14.8002 37.3249 13.6285 37.2914 12.3989C37.2579 11.1693 37.6899 9.97235 38.5008 9.04747C38.5679 8.97055 38.6034 8.87111 38.6003 8.7691C38.5971 8.66709 38.5556 8.57003 38.4839 8.49739L33.9214 3.82884C33.846 3.75179 33.743 3.70784 33.6352 3.70667C33.5274 3.70549 33.4236 3.74717 33.3465 3.82256L25.9135 11.0949C25.6392 11.3631 25.4312 11.6916 25.306 12.0542C25.1813 12.4177 24.9736 12.7471 24.6993 13.0163C24.4251 13.2855 24.0919 13.4871 23.7262 13.6051C23.3607 13.7225 23.0274 13.9232 22.7528 14.1914L3.69053 32.8375C3.61348 32.9129 3.56954 33.0158 3.56836 33.1236C3.56718 33.2314 3.60886 33.3353 3.68425 33.4124L8.24678 38.0757C8.31783 38.149 8.41395 38.1927 8.51587 38.1981C8.61779 38.2034 8.71798 38.1701 8.79635 38.1047C9.73854 37.3133 10.9449 36.9069 12.1739 36.967C13.4029 37.027 14.5639 37.5491 15.4244 38.4286C16.285 39.3082 16.7815 40.4803 16.8147 41.7103C16.8479 42.9403 16.4153 44.1375 15.6034 45.0622C15.5364 45.1391 15.5008 45.2386 15.504 45.3406C15.5071 45.4426 15.5487 45.5396 15.6204 45.6123L20.183 50.2756C20.2584 50.3527 20.3613 50.3966 20.4691 50.3978C20.5769 50.399 20.6808 50.3573 20.7579 50.2819L39.8212 31.6317C40.0953 31.3629 40.3033 31.0342 40.4286 30.6713C40.5534 30.3078 40.7611 29.9784 41.0353 29.7092C41.3096 29.44 41.6428 29.2384 42.0085 29.1204C42.3738 29.0032 42.7067 28.8025 42.9809 28.5341L50.4139 21.2617C50.4909 21.1863 50.5349 21.0834 50.536 20.9756C50.5372 20.8678 50.4955 20.7639 50.4202 20.6868L45.8576 16.0235C45.7866 15.9502 45.6905 15.9065 45.5885 15.9012C45.4866 15.8958 45.3864 15.9291 45.3081 15.9945C44.367 16.7865 43.1616 17.194 41.933 17.1356C40.7044 17.0772 39.5431 16.5572 38.6814 15.6796Z" stroke="black" stroke-width="3" stroke-miterlimit="10"/>
<path d="M26.6092 14.9663L24.9023 13.2217M31.1604 19.618L30.0221 18.4556M35.7115 24.2708L34.5743 23.1073M40.8324 29.5037L39.1254 27.7591" stroke="black" stroke-width="3" stroke-miterlimit="10" stroke-linecap="round"/>
</svg>
