<svg width="53" height="53" viewBox="0 0 53 53" fill="none" xmlns="http://www.w3.org/2000/svg">
<path d="M6.43333 19.3333H46.5667M6.43333 33.6667H46.5667M5 26.5C5 29.3234 5.55611 32.1192 6.63659 34.7277C7.71707 37.3362 9.30074 39.7063 11.2972 41.7028C13.2937 43.6993 15.6638 45.2829 18.2723 46.3634C20.8808 47.4439 23.6766 48 26.5 48C29.3234 48 32.1192 47.4439 34.7277 46.3634C37.3362 45.2829 39.7063 43.6993 41.7028 41.7028C43.6993 39.7063 45.2829 37.3362 46.3634 34.7277C47.4439 32.1192 48 29.3234 48 26.5C48 20.7978 45.7348 15.3292 41.7028 11.2972C37.6708 7.26517 32.2022 5 26.5 5C20.7978 5 15.3292 7.26517 11.2972 11.2972C7.26517 15.3292 5 20.7978 5 26.5Z" stroke="black" stroke-width="2.5" stroke-linecap="round" stroke-linejoin="round"/>
<path d="M25.3055 5C21.2811 11.4491 19.1475 18.8982 19.1475 26.5C19.1475 34.1018 21.2811 41.5509 25.3055 48M27.6944 5C31.7189 11.4491 33.8525 18.8982 33.8525 26.5C33.8525 34.1018 31.7189 41.5509 27.6944 48" stroke="black" stroke-width="2.5" stroke-linecap="round" stroke-linejoin="round"/>
</svg>
